IKResults
version=1
nRows=8
nColumns=40
inDegrees=yes

Units are S.I. units (second, meters, Newtons, ...)
Angles are in degrees.

endheader
time	pelvis_tilt	pelvis_list	pelvis_rotation	pelvis_tx	pelvis_ty	pelvis_tz	hip_flexion_r	hip_adduction_r	hip_rotation_r	knee_angle_r	knee_angle_r_beta	ankle_angle_r	subtalar_angle_r	mtp_angle_r	hip_flexion_l	hip_adduction_l	hip_rotation_l	knee_angle_l	knee_angle_l_beta	ankle_angle_l	subtalar_angle_l	mtp_angle_l	lumbar_extension	lumbar_bending	lumbar_rotation	arm_flex_r	arm_add_r	arm_rot_r	elbow_flex_r	pro_sup_r	wrist_flex_r	wrist_dev_r	arm_flex_l	arm_add_l	arm_rot_l	elbow_flex_l	pro_sup_l	wrist_flex_l	wrist_dev_l
      0.00000000	     16.05056648	     -5.53321331	      7.79942417	     -1.22932111	      0.93834136	     -1.47122193	      0.99651236	      3.17872425	    -27.05836030	    -15.06566950	     -0.26294554	     -1.24230581	      6.44576350	     -7.41152692	    -28.41894386	      8.34724624	      7.98969531	    -17.69455474	     -0.30882824	     14.59589802	      4.04312446	     -5.25180911	    -22.36395213	      8.42539284	     -7.21645270	     -4.60434008	    -10.05946802	     -0.86143226	     21.19531177	     89.95437384	      0.00000000	      0.00000000	     16.45016939	      8.15727075	     -0.94864413	     44.07991235	     89.95437384	      0.00000000	      0.00000000
      0.01000000	     15.89754106	     -5.65843364	      7.64917804	     -1.22285370	      0.93917608	     -1.46938271	      0.98933413	      3.43047234	    -26.46221174	    -15.47906851	     -0.27016071	     -1.16442581	      6.36601084	     -7.35853178	    -28.32809696	      8.54254060	      7.49263018	    -18.32329495	     -0.31980183	     13.98102151	      4.12913174	     -5.14976120	    -22.23882980	      8.50659264	     -6.92088819	     -4.55550594	    -10.06906878	     -0.81379275	     21.24282706	     89.95437384	      0.00000000	      0.00000000	     16.43451973	      8.06234768	     -0.84833122	     44.17419245	     89.95437384	      0.00000000	      0.00000000
      0.02000000	     15.77967215	     -5.82611079	      7.58397509	     -1.21623879	      0.94016440	     -1.46742617	      0.76220938	      3.86095921	    -25.86576920	    -15.51368711	     -0.27076492	     -0.87960685	      6.34457144	     -7.36994472	    -28.19185753	      8.83738639	      7.02360781	    -19.06089677	     -0.33267541	     13.15726597	      4.71068382	     -5.00532430	    -22.09883128	      8.63378014	     -6.71075436	     -4.44342150	    -10.05522261	     -0.69071512	     21.15755305	     89.95437384	      0.00000000	      0.00000000	     16.42157890	      7.98290067	     -0.69509808	     44.10670151	     89.95437384	      0.00000000	      0.00000000
      0.03000000	     15.63485900	     -5.84521602	      7.46952096	     -1.20963116	      0.94115967	     -1.46551778	      0.53487523	      4.10874367	    -25.39215772	    -15.51539581	     -0.27079474	     -0.61869744	      6.16096567	     -7.33292727	    -27.96666746	      8.93650204	      6.45173277	    -19.93395225	     -0.34791310	     12.34683144	      5.27045537	     -4.84967550	    -21.94937252	      8.59501100	     -6.52910929	     -4.41279756	    -10.04521715	     -0.55175420	     21.27177329	     89.95437384	      0.00000000	      0.00000000	     16.35397234	      7.91921689	     -0.52156951	     44.14010190	     89.95437384	      0.00000000	      0.00000000
      0.04000000	     15.62830798	     -5.82991007	      7.51203731	     -1.20290142	      0.94237771	     -1.46376544	      0.03159594	      4.37809518	    -25.00212195	    -15.28650672	     -0.26679987	     -0.46521367	      5.93167101	     -7.29304413	    -27.77149394	      9.08003677	      5.77221284	    -20.95616664	     -0.36575411	     11.42529361	      6.20280860	     -4.65599677	    -21.88836167	      8.57612148	     -6.54189116	     -4.33288412	    -10.02929813	     -0.36464201	     21.37995829	     89.95437384	      0.00000000	      0.00000000	     16.27065605	      7.92142899	     -0.38027432	     44.04877900	     89.95437384	      0.00000000	      0.00000000
      0.05000000	     15.68105680	     -5.66250341	      7.67336308	     -1.19618444	      0.94385307	     -1.46233978	     -0.73684241	      4.64262217	    -24.23805844	    -14.62006299	     -0.25516824	     -1.05081091	      4.21848181	     -7.37518189	    -27.80049189	      8.84907884	      3.76286691	    -21.63025451	     -0.37751916	     10.69453457	      8.95036878	     -4.29623995	    -21.90179827	      8.47829104	     -6.77402085	     -4.28009602	    -10.05315652	      0.03286445	     21.70154053	     89.95437384	      0.00000000	      0.00000000	     16.07464703	      7.98113833	     -0.21190060	     44.11375170	     89.95437384	      0.00000000	      0.00000000
      0.06000000	     15.68148751	     -5.42213117	      7.58009291	     -1.18947496	      0.94497152	     -1.46056880	     -1.18504618	      4.56486285	    -24.06905388	    -14.69811491	     -0.25653050	     -0.66051598	      4.09687073	     -7.30192482	    -27.42851313	      8.75002046	      3.45152213	    -23.03468039	     -0.40203102	      9.65640769	      9.05640020	     -4.14279753	    -21.87811214	      8.18979502	     -6.65158472	     -4.25564442	    -10.02577410	      0.10379724	     21.91195255	     89.95437384	      0.00000000	      0.00000000	     16.01941546	      7.95264915	     -0.13188318	     44.00649657	     89.95437384	      0.00000000	      0.00000000
      0.07000000	     15.83416725	     -5.26330112	      7.91608214	     -1.18260300	      0.94625589	     -1.45920567	     -2.02735330	      4.70933901	    -24.16201902	    -14.28834143	     -0.24937860	     -0.34604928	      4.19364817	     -7.29720523	    -27.02947082	      8.88359687	      2.67493907	    -24.56604485	     -0.42875837	      8.41150386	      9.80613535	     -3.91318835	    -21.92714330	      8.13254197	     -6.93578593	     -4.23871363	     -9.99617681	      0.25399615	     22.18243399	     89.95437384	      0.00000000	      0.00000000	     15.87778376	      8.06493715	     -0.20891269	     43.94743391	     89.95437384	      0.00000000	      0.00000000
